<?xml version="1.0" encoding="utf-8"?>
<svg version="1.1" xmlns="http://www.w3.org/2000/svg" xmlns:xlink="http://www.w3.org/1999/xlink"
     x="0px" y="0px" viewBox="0 0 2834.6 2834.6" xml:space="preserve">
  <style type="text/css">
    .st0 { opacity: 0.9258; fill: currentColor; }
    .st1 { fill: currentColor; }
  </style>
  <g id="layer1">
    <g id="g58" transform="matrix(12.878409,0,0,12.878409,-805.69626,-1292.31)">
      <path id="path28" class="st0" d="M72.1,212.3L80,174l123.8-66L188.3,150l-46.4,24.9l81.4,25.7l0.9-2.9l27.3-8.8l-5.7,18.6
        l21.3,6.6l-7.8,26.2l-21.2-6.8l-17.6,59.4l8.3,7.7l-25.3,11.4l-69-57.5l0.3-33.1l65.4,55.2l15.4-50.4l-106.9-33.6L72.1,212.3z"/>
      <path id="path30" class="st1" d="M229.7,178.6l-4.6,15.1l28.2-9.4l4.2-14L229.7,178.6z"/>
      <path id="path32" class="st1" d="M234.4,164.3l-3.4,10.8l18.7-6.2L234.4,164.3z"/>
    </g>
  </g>
</svg>
