<svg id="Layer_1" data-name="Layer 1" xmlns="http://www.w3.org/2000/svg" viewBox="0 0 1145.49 857.53"><defs><style>.cls-1{fill:#fff;}</style></defs><title>logo 4</title><path class="cls-1" d="M1529.48,447.91a30.81,30.81,0,0,0-5.54-7.85c-.3-.34-.61-.67-.93-1s-.61-.67-.92-1-.61-.67-.93-1-.61-.67-.92-1-.61-.67-.93-1-.61-.67-.92-1-.61-.67-.93-1-.61-.68-.92-1-.61-.67-.93-1-.61-.67-.92-1-.61-.67-.93-1-.61-.67-.92-1-.61-.67-.93-1-.61-.67-.92-1-.61-.67-.93-1-.61-.67-.92-1-.61-.67-.93-1-.61-.67-.92-1-.61-.66-.93-1-.61-.67-.92-1-.61-.67-.93-1-.61-.67-.93-1-.61-.67-.92-1-.61-.67-.93-1-.61-.67-.92-1-.61-.67-.92-1-.62-.68-.93-1-.61-.67-.93-1-.61-.67-.92-1-.61-.67-.93-1-.61-.67-.92-1-.61-.67-.93-1-.61-.67-.92-1-.61-.67-.93-1-.61-.67-.92-1-.61-.67-.93-1-.61-.67-.92-1-.61-.66-.93-1-.61-.67-.92-1-.61-.67-.93-1c-6-6.77-14.73-10.66-24.72-10.66h-33.55c-9.16,0-18.23,2.93-26.94,8.69l-.31.21a54.85,54.85,0,0,0-18.16,20.33l-17,33.29a8.11,8.11,0,0,1-2.14,2.52,32.43,32.43,0,0,0-2.37-6.68,30.81,30.81,0,0,0-5.54-7.85c-.31-.34-.61-.67-.93-1s-.61-.67-.92-1-.61-.67-.93-1-.61-.67-.92-1-.61-.67-.93-1-.61-.67-.93-1-.61-.67-.92-1-.61-.68-.93-1-.61-.67-.92-1-.61-.67-.93-1-.61-.67-.92-1-.61-.67-.93-1-.61-.67-.92-1-.61-.67-.93-1-.61-.67-.92-1-.61-.67-.93-1-.61-.67-.92-1-.61-.67-.93-1-.61-.66-.92-1-.61-.67-.93-1-.61-.67-.92-1-.61-.67-.93-1-.61-.67-.92-1-.61-.67-.93-1-.61-.67-.92-1-.61-.67-.93-1-.61-.68-.92-1-.61-.67-.93-1-.61-.67-.92-1-.61-.67-.93-1-.61-.67-.92-1-.61-.67-.93-1-.61-.67-.92-1-.61-.67-.93-1-.61-.67-.92-1-.61-.67-.93-1-.61-.67-.93-1-.61-.66-.92-1-.61-.67-.93-1-.61-.67-.92-1c-6-6.77-14.73-10.66-24.72-10.66h-33.55c-9.16,0-18.23,2.93-27,8.69l-.3.21a32.73,32.73,0,0,0-23.09-8.9H1177c-9.16,0-18.22,2.93-26.94,8.69l-.31.21a54.85,54.85,0,0,0-18.16,20.33l-17,33.29a8.11,8.11,0,0,1-2.14,2.52,32.43,32.43,0,0,0-2.37-6.68,30.81,30.81,0,0,0-5.54-7.85c-.3-.34-.61-.67-.93-1s-.61-.67-.92-1-.61-.67-.93-1-.61-.67-.92-1-.61-.67-.93-1-.61-.67-.92-1-.61-.67-.93-1-.61-.68-.92-1-.61-.67-.93-1-.61-.67-.93-1-.61-.67-.92-1-.61-.67-.92-1l-.93-1c-.3-.34-.61-.67-.92-1l-.93-1q-.45-.51-.93-1c-.3-.34-.61-.67-.92-1s-.61-.67-.93-1-.61-.66-.92-1-.61-.67-.93-1-.61-.67-.92-1-.61-.67-.93-1-.61-.67-.92-1-.61-.67-.93-1-.61-.67-.92-1-.61-.67-.93-1-.61-.68-.92-1-.61-.67-.93-1-.61-.67-.92-1-.61-.67-.93-1-.61-.67-.92-1-.61-.67-.93-1-.61-.67-.92-1-.61-.67-.93-1-.61-.67-.92-1-.61-.67-.93-1-.61-.67-.92-1-.61-.66-.93-1-.61-.67-.92-1-.61-.67-.93-1c-6-6.77-14.73-10.66-24.72-10.66h-33.55c-9.16,0-18.23,2.93-27,8.69l-.3.21a32.73,32.73,0,0,0-23.08-8.9H925.34c-9.16,0-18.22,2.93-26.94,8.69l-.31.21a54.38,54.38,0,0,0-18,20.06L861,455.79a32,32,0,0,0-2.61-7.88,30.81,30.81,0,0,0-5.54-7.85c-.3-.34-.61-.67-.93-1s-.61-.67-.92-1-.61-.67-.93-1-.61-.67-.92-1-.61-.67-.93-1-.61-.67-.92-1-.61-.67-.93-1-.61-.68-.92-1-.61-.67-.93-1-.61-.67-.92-1-.61-.67-.93-1-.61-.67-.92-1-.61-.67-.93-1-.61-.67-.92-1-.61-.67-.93-1-.61-.67-.93-1-.6-.67-.92-1-.61-.67-.93-1-.61-.66-.92-1-.61-.67-.93-1-.61-.67-.92-1-.61-.67-.93-1-.61-.67-.92-1-.61-.67-.93-1-.61-.67-.92-1-.61-.67-.93-1-.61-.68-.92-1-.61-.67-.93-1-.61-.67-.92-1-.61-.67-.93-1-.61-.67-.92-1-.61-.67-.93-1-.61-.67-.92-1-.61-.67-.93-1-.61-.67-.92-1-.61-.67-.93-1-.61-.67-.92-1-.61-.66-.93-1-.61-.67-.92-1-.61-.67-.93-1c-6-6.77-14.73-10.66-24.72-10.66H757.57c-9.16,0-18.23,2.93-26.94,8.69l-.32.21a61.76,61.76,0,0,0-6.62,5.24c-7.66-9.09-19.31-14.14-33.23-14.14H522.69c-13.69,0-27.58,4.6-41.3,13.68-13,8.59-22.85,19.37-29.34,32.06L417.73,502.4c-5.84,11.43-5.38,20.89-3.35,27.6-1.36.75-2.72,1.57-4.06,2.46l-.32.21a54.27,54.27,0,0,0-18,20.06c-7,13.66-5,24.51-2,31.21.25.58.53,1.14.83,1.69a30.47,30.47,0,0,0,5.44,7.24c.31.33.6.68.93,1s.6.67.92,1,.6.68.93,1,.6.68.92,1,.6.68.93,1,.6.68.92,1,.61.68.93,1,.6.68.92,1,.61.68.93,1,.6.68.92,1,.6.68.93,1,.6.68.92,1,.61.67.93,1,.6.68.92,1,.61.68.93,1,.6.68.92,1,.61.68.93,1,.6.68.92,1,.61.68.93,1,.6.68.92,1,.61.67.93,1,.6.68.92,1,.61.68.93,1,.6.68.92,1,.61.68.93,1,.6.68.92,1,.61.68.93,1,.6.68.92,1,.61.67.93,1,.6.68.93,1,.6.68.92,1,.6.67.92,1,.61.68.93,1,.6.68.93,1,.6.68.92,1,.6.68.93,1,.6.68.92,1,.6.68.93,1,.6.68.92,1,.61.67.93,1c6,6.53,14.7,10.19,24.79,10.19H642.58c13.16,0,26.57-4.29,39.88-12.76l.25.24c.31.34.61.67.93,1s.61.67.93,1c6,6.75,14.85,10.53,25.12,10.53h33.56c8.85,0,17.68-2.77,26.55-8.43A54.11,54.11,0,0,0,788.52,614a10.2,10.2,0,0,1,3.33-3.42,16.36,16.36,0,0,1,2.15-1.17h70.49l.45.45c.31.33.61.68.93,1s.6.68.92,1,.61.68.93,1,.6.67.92,1,.61.68.93,1,.6.68.92,1,.61.68.93,1,.6.68.93,1,.6.68.92,1,.6.68.93,1,.6.68.92,1,.6.67.93,1,.6.68.92,1,.6.68.93,1,.6.67.92,1,.6.68.93,1,.6.68.92,1,.61.68.93,1,.6.68.92,1,.61.68.93,1,.6.68.92,1,.61.68.93,1,.6.67.92,1c6,6.53,14.71,10.19,24.8,10.19,8.85,0,17.69-2.77,26.55-8.43a59.54,59.54,0,0,0,7.06-5.45c6,7,16.28,13.88,33.5,13.88H1145.9c13.44,0,27.15-4.47,40.74-13.31,2.13-1.38,4.16-2.84,6.13-4.34l.17.19q.45.49.93,1c.29.34.61.67.92,1l.93,1c.29.33.61.66.93,1,6,6.85,16.25,13.48,33.14,13.48h167.77c13.44,0,27.15-4.47,40.74-13.31,13.22-8.59,23.28-19.5,29.89-32.42l60.07-117.45C1535.71,465.17,1532.24,453.58,1529.48,447.91ZM633.2,570q-14.93,9.69-28.55,9.69H420.1q-7.08,0-9.64-4.71c-1.46-3.32-1-7.34,1.44-12.06a32.13,32.13,0,0,1,10.76-11.8q7.51-5,14.6-5H579.87a12.58,12.58,0,0,0,7-2.36,15.12,15.12,0,0,0,5.71-6c1.16-2.27,1.26-4.19.33-5.77-.68-1.74-2.16-2.62-4.43-2.62H445.84q-7.08,0-9.64-4.72-2.18-5,1.45-12L472,445.48q7.11-13.89,21.77-23.59,15-10,29-10H690.46q13.89,0,18.5,10,4.86,10-2.11,23.59-7.23,14.14-22.16,23.85T656.13,479H530.3a12.7,12.7,0,0,0-7.36,2.62,15.26,15.26,0,0,0-5.31,5.77q-1.89,3.68-.73,6t4.83,2.36h142.6q6.82,0,9.25,5t-1.05,11.8l-17.16,33.55Q648.13,560.3,633.2,570Zm265.25-7.08A32,32,0,0,1,887.3,575q-7.39,4.71-14.21,4.71-7.08,0-9.65-4.71-2.18-5,1.45-12.06,3.48-6.81,1.05-11.8c-1.62-3.31-4.7-5-9.25-5H756q-7.08,0-14.61,5a32.1,32.1,0,0,0-10.75,11.8A31.87,31.87,0,0,1,719.52,575q-7.39,4.71-14.21,4.71H671.76q-7.08,0-9.65-4.71-2.18-5,1.45-12.06L732.21,428.7A32.1,32.1,0,0,1,743,416.9q7.53-5,14.61-5h33.55c4.55,0,7.63,1.67,9.25,5s1.23,7.34-1.19,12.06L773.57,479a31.92,31.92,0,0,1-11.14,12.06q-7.39,4.73-14.21,4.72h-8.39a12.73,12.73,0,0,0-7.37,2.62,15.19,15.19,0,0,0-5.31,5.77c-1.25,2.45-1.49,4.45-.72,6s2.37,2.36,4.82,2.36h109q6.83,0,14.21-4.72a32,32,0,0,0,11.15-12.06L900,428.7a32.19,32.19,0,0,1,10.75-11.8q7.53-5,14.61-5h33.55c4.55,0,7.63,1.67,9.25,5s1.23,7.34-1.18,12.06ZM1136.52,570q-14.93,9.69-28.55,9.69H940.2q-14.16,0-18.9-9.69-4.6-10,2.5-23.86a32.12,32.12,0,0,1,10.76-11.8q7.52-5,14.6-5h176.16a12.62,12.62,0,0,0,7-2.35,15.19,15.19,0,0,0,5.71-6c1.16-2.27,1.27-4.2.33-5.77q-1-2.62-4.43-2.62H957.74q-7.08,0-9.64-4.72-2.18-5,1.45-12.06L983.73,429a32.68,32.68,0,0,1,10.89-12.06q7.51-5,14.61-5h33.55c4.55,0,7.63,1.67,9.25,5s1.27,7.26-1,11.8l-17.16,33.56q-3.63,7.07-1.45,12.05,2.57,4.72,9.64,4.72h67.11q6.81,0,14.21-4.72a31.92,31.92,0,0,0,11.15-12.05l17-33.3a32.56,32.56,0,0,1,10.88-12.06q7.53-5,14.61-5h33.55c4.55,0,7.63,1.67,9.25,5s1.27,7.26-1,11.8l-60.07,117.44Q1151.45,560.3,1136.52,570Zm333.89-141.3-60.07,117.44q-7.23,14.16-22.16,23.86t-28.55,9.69H1191.85q-14.14,0-18.89-9.69-4.61-10,2.5-23.86a32.18,32.18,0,0,1,10.75-11.8q7.53-5,14.61-5H1377a12.62,12.62,0,0,0,7-2.35,15.19,15.19,0,0,0,5.71-6c1.16-2.27,1.27-4.2.33-5.77q-1-2.62-4.43-2.62H1209.4q-7.08,0-9.64-4.72-2.17-5,1.45-12.06L1235.39,429a32.59,32.59,0,0,1,10.89-12.06q7.52-5,14.61-5h33.55c4.54,0,7.63,1.67,9.25,5s1.27,7.26-1,11.8l-17.17,33.56q-3.62,7.07-1.44,12.05,2.55,4.72,9.64,4.72h67.11q6.81,0,14.21-4.72a31.92,31.92,0,0,0,11.15-12.05l17-33.3a32.56,32.56,0,0,1,10.88-12.06q7.53-5,14.61-5h33.55c4.55,0,7.63,1.67,9.25,5S1472.73,424.16,1470.41,428.7Z" transform="translate(-387.26 -111.24)"/><path class="cls-1" d="M885,239c-51.39,11-64.32,23.91-75.3,75.3a3.37,3.37,0,0,1-6.58,0c-11-51.39-23.9-64.32-75.3-75.3a3.37,3.37,0,0,1,0-6.58c51.4-11,64.32-23.9,75.3-75.3a3.37,3.37,0,0,1,6.58,0c11,51.4,23.91,64.32,75.3,75.3a3.37,3.37,0,0,1,0,6.58" transform="translate(-387.26 -111.24)"/><path class="cls-1" d="M730.38,269.68c4.9,22.91,10.66,28.68,33.56,33.57a1.5,1.5,0,0,1,0,2.93c-22.9,4.89-28.66,10.66-33.56,33.56a1.5,1.5,0,0,1-2.93,0c-4.89-22.9-10.66-28.67-33.56-33.56a1.5,1.5,0,0,1,0-2.93c22.9-4.89,28.67-10.66,33.56-33.57a1.5,1.5,0,0,1,2.93,0" transform="translate(-387.26 -111.24)"/><path class="cls-1" d="M1062.23,792.23c51.39-11,64.31-23.9,75.29-75.29a3.37,3.37,0,0,1,6.59,0c11,51.39,23.9,64.31,75.29,75.29a3.37,3.37,0,0,1,0,6.59c-51.39,11-64.32,23.9-75.29,75.29a3.37,3.37,0,0,1-6.59,0c-11-51.39-23.9-64.32-75.29-75.29a3.37,3.37,0,0,1,0-6.59" transform="translate(-387.26 -111.24)"/><path class="cls-1" d="M1207.13,733.22a1.51,1.51,0,0,1-2.94,0c-4.89-22.91-10.65-28.67-33.56-33.56a1.5,1.5,0,0,1,0-2.94c22.91-4.9,28.67-10.65,33.56-33.56a1.5,1.5,0,0,1,2.94,0c4.89,22.91,10.65,28.66,33.56,33.56a1.51,1.51,0,0,1,0,2.94c-22.91,4.89-28.67,10.65-33.56,33.56" transform="translate(-387.26 -111.24)"/><path class="cls-1" d="M1235.57,244.46a110.6,110.6,0,0,0-22-28.6c-85.26-78.55-280.82-5.73-441.49,162.63h-5.25c147.81-178.9,335.2-265.78,427.54-194.58,19.31,14.81,32.87,35.52,41.2,60.55" transform="translate(-387.26 -111.24)"/><path class="cls-1" d="M611.56,839.06A106.07,106.07,0,0,0,625,854c87.09,80.34,289.4,2.54,451.92-173.66,7.52-8.16,14.76-16.38,21.84-24.65h10.12q-6,8.19-12.17,16.27C946.22,867.23,746.07,965.25,649.56,890.91c-17-13.08-29.52-30.71-38-51.85" transform="translate(-387.26 -111.24)"/><path class="cls-1" d="M1224.92,143.25c-28.06-21.62-63.91-30.33-104.51-27.68,60.83-10.76,113-1.79,149,30.17,52.06,46.17,60.5,131.7,32.11,232.75h-29.25c23.09-104.56,9.09-191.72-47.36-235.24" transform="translate(-387.26 -111.24)"/><path class="cls-1" d="M1153,655.73c-13.85,17.73-28.39,35.36-43.85,52.77q-20.85,23.52-42.39,45.14,24.26-27.07,47.31-57,15.65-20.26,30-40.87Z" transform="translate(-387.26 -111.24)"/><path class="cls-1" d="M773.7,325.29q-23.21,25.29-45.42,53.2h-4.16c1.89-2.22,3.73-4.38,5.68-6.55q21.57-24.31,43.9-46.65" transform="translate(-387.26 -111.24)"/><path class="cls-1" d="M552.63,655.73h22c-41.31,128-33.25,238.26,32.71,289.09a131.15,131.15,0,0,0,51.63,23.94c-35.31-2.1-65.8-13.19-89.37-34.06-59.85-53.09-62-158.08-16.92-279" transform="translate(-387.26 -111.24)"/></svg>