<svg id="Layer_1" data-name="Layer 1" xmlns="http://www.w3.org/2000/svg" viewBox="0 0 1337.68 304.99"><defs><style>.cls-1{fill:#fff;}</style></defs><title>logo 3</title><path class="cls-1" d="M1548.44,497.5a30.48,30.48,0,0,0-5.55-7.86c-.3-.34-.61-.67-.92-1s-.61-.67-.92-1l-.93-1q-.45-.51-.93-1c-.3-.34-.61-.67-.92-1s-.61-.67-.93-1-.61-.67-.92-1-.61-.67-.93-1-.61-.67-.92-1-.61-.68-.93-1-.61-.67-.92-1-.61-.67-.93-1-.61-.67-.92-1-.61-.67-.93-1-.61-.67-.92-1-.61-.67-.93-1-.61-.67-.92-1-.61-.68-.93-1-.61-.67-.92-1-.61-.67-.93-1-.61-.67-.92-1-.61-.67-.93-1-.61-.67-.92-1-.61-.67-.93-1-.61-.67-.92-1-.61-.67-.93-1-.61-.67-.93-1-.61-.67-.92-1-.61-.66-.92-1l-.93-1c-.3-.34-.61-.67-.92-1l-.93-1c-.3-.34-.61-.67-.93-1s-.61-.67-.92-1-.61-.67-.93-1-.61-.67-.92-1-.61-.67-.93-1-.61-.67-.92-1-.61-.67-.93-1-.61-.67-.92-1c-6-6.76-14.73-10.65-24.72-10.65h-33.55c-9.16,0-18.23,2.92-26.95,8.69-.1.07-.21.13-.31.21a54.88,54.88,0,0,0-18.15,20.32l-17,33.29a8.3,8.3,0,0,1-2.15,2.53,32.47,32.47,0,0,0-2.36-6.68,31,31,0,0,0-5.55-7.86c-.3-.34-.61-.67-.92-1s-.61-.67-.93-1-.61-.67-.92-1-.61-.67-.93-1-.61-.67-.92-1-.61-.67-.93-1-.61-.67-.92-1-.61-.67-.93-1-.61-.67-.92-1-.61-.68-.93-1-.61-.67-.92-1-.61-.67-.93-1-.61-.67-.93-1-.6-.67-.92-1-.61-.67-.93-1-.61-.67-.92-1-.61-.67-.92-1-.62-.68-.93-1-.61-.67-.93-1-.61-.67-.92-1-.61-.67-.93-1-.61-.67-.92-1-.61-.67-.93-1-.61-.67-.92-1-.61-.67-.93-1-.61-.67-.92-1-.61-.67-.93-1-.61-.67-.92-1-.61-.66-.93-1-.61-.67-.92-1-.61-.67-.93-1-.61-.67-.92-1-.61-.67-.93-1-.61-.67-.92-1-.61-.67-.93-1-.61-.67-.92-1-.61-.67-.93-1-.61-.67-.92-1-.61-.67-.93-1-.61-.67-.92-1c-6-6.76-14.74-10.65-24.72-10.65h-33.56c-9.16,0-18.22,2.92-26.94,8.69l-.3.2a32.76,32.76,0,0,0-23.09-8.89H1196c-9.16,0-18.23,2.92-27,8.69-.1.07-.21.13-.31.21a54.88,54.88,0,0,0-18.15,20.32l-17,33.29a8.39,8.39,0,0,1-2.14,2.53,33,33,0,0,0-2.37-6.68,30.72,30.72,0,0,0-5.55-7.86c-.3-.34-.61-.67-.92-1s-.61-.67-.93-1-.61-.67-.92-1-.61-.67-.93-1-.61-.67-.92-1-.61-.67-.93-1-.61-.67-.92-1-.61-.67-.93-1-.61-.67-.92-1-.61-.68-.93-1-.61-.67-.92-1-.61-.67-.93-1-.61-.67-.92-1-.61-.67-.93-1-.61-.67-.93-1-.61-.67-.92-1-.61-.67-.92-1-.61-.68-.93-1-.61-.67-.92-1l-.93-1c-.3-.34-.61-.67-.93-1s-.61-.67-.92-1-.61-.67-.93-1-.61-.67-.92-1-.61-.67-.93-1-.61-.67-.92-1-.61-.67-.93-1-.61-.67-.92-1-.61-.66-.93-1-.61-.67-.92-1-.61-.67-.93-1-.61-.67-.92-1-.61-.67-.93-1-.61-.67-.92-1-.61-.67-.93-1-.61-.67-.92-1-.61-.67-.93-1-.61-.67-.92-1-.61-.67-.93-1-.61-.67-.92-1c-6-6.76-14.73-10.65-24.72-10.65h-33.56c-9.16,0-18.22,2.92-26.94,8.69l-.3.2a32.76,32.76,0,0,0-23.09-8.89H944.3c-9.16,0-18.23,2.92-26.95,8.69L917,448a54.32,54.32,0,0,0-18,20.06L880,505.37a32.37,32.37,0,0,0-2.61-7.87,30.72,30.72,0,0,0-5.55-7.86c-.3-.34-.61-.67-.92-1s-.61-.67-.93-1-.61-.67-.92-1-.61-.67-.93-1-.61-.67-.92-1-.61-.67-.93-1-.61-.67-.92-1-.61-.67-.93-1-.61-.67-.92-1-.61-.68-.93-1-.61-.67-.92-1-.61-.67-.93-1-.61-.67-.92-1-.61-.67-.93-1-.61-.67-.92-1-.61-.67-.93-1-.61-.67-.92-1-.61-.68-.93-1-.61-.67-.92-1-.61-.67-.93-1-.61-.67-.92-1-.61-.67-.93-1-.61-.67-.92-1-.61-.67-.93-1-.61-.67-.93-1-.6-.67-.92-1-.61-.67-.93-1-.61-.67-.92-1-.61-.66-.92-1l-.93-1q-.45-.51-.93-1c-.3-.34-.61-.67-.92-1s-.61-.67-.93-1-.61-.67-.92-1-.61-.67-.93-1-.61-.67-.92-1-.61-.67-.93-1-.61-.67-.92-1-.61-.67-.93-1-.61-.67-.92-1c-6-6.76-14.73-10.65-24.72-10.65H776.52c-9.15,0-18.22,2.92-26.94,8.69-.1.07-.21.13-.31.21a59.71,59.71,0,0,0-6.63,5.24c-7.66-9.09-19.3-14.14-33.22-14.14H541.64c-13.68,0-27.58,4.6-41.29,13.67-13,8.59-22.85,19.38-29.34,32.06L436.69,552c-5.85,11.43-5.38,20.89-3.36,27.6-1.36.75-2.71,1.58-4.06,2.47-.1.07-.21.13-.31.21a54.27,54.27,0,0,0-18,20.06c-7,13.65-5,24.51-2,31.2.25.58.53,1.14.82,1.7a30.92,30.92,0,0,0,5.45,7.23c.31.34.6.68.92,1s.6.68.93,1,.6.68.92,1,.61.68.93,1,.6.68.92,1,.61.68.93,1,.6.68.92,1,.61.67.93,1,.6.68.92,1,.61.68.93,1,.6.67.92,1,.61.68.93,1,.6.68.92,1,.61.67.93,1,.6.68.92,1,.61.68.93,1,.6.68.92,1,.61.68.93,1,.6.67.92,1,.61.68.93,1,.6.68.92,1,.61.68.93,1,.6.68.92,1,.61.68.93,1,.6.68.93,1,.6.68.92,1,.6.68.93,1,.6.68.92,1,.6.68.93,1,.6.67.92,1,.6.68.93,1,.6.68.92,1,.6.68.93,1,.6.68.92,1,.6.68.93,1,.6.68.92,1,.61.68.93,1,.6.67.92,1,.61.68.93,1,.6.68.92,1c6,6.52,14.71,10.19,24.8,10.19H661.54c13.16,0,26.57-4.3,39.88-12.77.08.09.17.16.25.24.3.34.61.68.93,1s.61.67.92,1c6.05,6.74,14.86,10.53,25.13,10.53H762.2c8.86,0,17.69-2.77,26.56-8.44a54.2,54.2,0,0,0,18.72-20.53,10.2,10.2,0,0,1,3.33-3.42,17.28,17.28,0,0,1,2.15-1.17h70.48c.15.16.31.3.46.45.31.33.6.68.93,1s.6.67.92,1,.6.68.93,1,.6.68.92,1,.6.68.93,1,.6.68.92,1,.6.68.93,1,.6.68.92,1,.6.68.93,1,.6.68.92,1,.61.68.93,1,.6.68.92,1,.61.67.93,1,.6.68.92,1,.61.68.93,1,.6.68.92,1,.61.68.93,1,.6.68.92,1,.61.68.93,1,.6.68.92,1,.61.67.93,1,.6.68.92,1,.61.68.93,1c6,6.52,14.7,10.19,24.79,10.19,8.86,0,17.69-2.77,26.56-8.44a60.3,60.3,0,0,0,7.06-5.44c6,7,16.28,13.88,33.49,13.88h167.78c13.44,0,27.14-4.48,40.74-13.31,2.13-1.39,4.16-2.84,6.12-4.35l.18.19c.29.33.61.66.93,1s.6.66.92,1,.61.67.93,1,.61.66.92,1c6,6.84,16.25,13.48,33.14,13.48h167.78c13.44,0,27.14-4.48,40.74-13.31,13.22-8.6,23.27-19.51,29.89-32.43l60.06-117.44C1554.67,514.75,1551.2,503.16,1548.44,497.5ZM652.16,619.58q-14.92,9.7-28.55,9.7H439.06q-7.08,0-9.65-4.72-2.18-5,1.45-12.06a32.18,32.18,0,0,1,10.75-11.8q7.51-5,14.61-5h142.6a12.67,12.67,0,0,0,7-2.35,15.23,15.23,0,0,0,5.7-6c1.16-2.27,1.27-4.2.33-5.77-.68-1.75-2.16-2.62-4.42-2.62H464.8q-7.08,0-9.65-4.72-2.16-5,1.45-12.06l34.33-67.11q7.1-13.89,21.76-23.59,15.06-10,28.95-10H709.41q13.9,0,18.5,10,4.88,10-2.1,23.59-7.24,14.16-22.16,23.85t-28.56,9.71H549.26a12.69,12.69,0,0,0-7.37,2.62,15.24,15.24,0,0,0-5.31,5.76q-1.87,3.68-.72,6c.77,1.58,2.37,2.36,4.82,2.36H683.29q6.81,0,9.25,5c1.61,3.33,1.27,7.26-1,11.8l-17.17,33.55Q667.08,609.88,652.16,619.58ZM917.4,612.5a32,32,0,0,1-11.15,12.06q-7.39,4.73-14.21,4.72-7.08,0-9.64-4.72-2.17-5,1.45-12.06,3.48-6.81,1-11.8c-1.63-3.31-4.71-5-9.25-5H775q-7.08,0-14.61,5a32.18,32.18,0,0,0-10.75,11.8,32,32,0,0,1-11.15,12.06q-7.4,4.73-14.21,4.72H690.72q-7.08,0-9.65-4.72-2.18-5,1.45-12.06l68.65-134.22a32,32,0,0,1,10.75-11.79c5-3.32,9.89-5,14.6-5h33.56q6.81,0,9.25,5t-1.19,12.05l-25.61,50.08a31.84,31.84,0,0,1-11.15,12q-7.39,4.73-14.2,4.72h-8.39a12.79,12.79,0,0,0-7.38,2.62,15.31,15.31,0,0,0-5.3,5.77q-1.89,3.68-.73,6t4.83,2.36h109q6.81,0,14.21-4.72a32,32,0,0,0,11.15-12.06l34.32-67.11a32,32,0,0,1,10.75-11.79q7.51-5,14.61-5h33.55q6.81,0,9.25,5t-1.19,12.05Zm238.08,7.08q-14.93,9.7-28.56,9.7H959.15q-14.16,0-18.89-9.7-4.6-10,2.5-23.86a32.07,32.07,0,0,1,10.75-11.79q7.51-5,14.61-5h176.16a12.63,12.63,0,0,0,7-2.36,15.19,15.19,0,0,0,5.71-6c1.16-2.27,1.26-4.2.32-5.77-.67-1.75-2.15-2.62-4.42-2.62H976.7q-7.08,0-9.65-4.72-2.17-5,1.45-12.06l34.19-66.85a32.56,32.56,0,0,1,10.89-12.05q7.51-5,14.6-5h33.56q6.81,0,9.25,5c1.61,3.32,1.27,7.25-1.06,11.79l-17.16,33.56c-2.41,4.71-2.89,8.74-1.45,12.06q2.57,4.71,9.65,4.72h67.11q6.81,0,14.21-4.72a32.1,32.1,0,0,0,11.15-12.06l17-33.3a32.64,32.64,0,0,1,10.89-12.05q7.51-5,14.61-5h33.55q6.81,0,9.25,5t-1,11.79l-60.07,117.44Q1170.4,609.88,1155.48,619.58Zm333.89-141.3L1429.3,595.72q-7.24,14.16-22.16,23.86t-28.56,9.7H1210.81q-14.16,0-18.89-9.7-4.61-10,2.5-23.86a32.07,32.07,0,0,1,10.75-11.79q7.51-5,14.61-5h176.16a12.66,12.66,0,0,0,7-2.36,15.19,15.19,0,0,0,5.71-6c1.16-2.27,1.26-4.2.32-5.77-.67-1.75-2.15-2.62-4.42-2.62H1228.36q-7.08,0-9.65-4.72-2.18-5,1.45-12.06l34.19-66.85a32.56,32.56,0,0,1,10.89-12.05q7.52-5,14.6-5h33.56q6.81,0,9.25,5c1.61,3.32,1.27,7.25-1.06,11.79l-17.16,33.56c-2.41,4.71-2.9,8.74-1.45,12.06q2.57,4.71,9.65,4.72h67.11q6.81,0,14.21-4.72a32,32,0,0,0,11.14-12.06l17-33.3A32.64,32.64,0,0,1,1433,466.49c5-3.32,9.89-5,14.6-5h33.56q6.81,0,9.25,5T1489.37,478.28Z" transform="translate(-406.21 -387.5)"/><path class="cls-1" d="M1682.66,423.8l7.75-23.7a2,2,0,0,0-3.3-2.13l-30.66,28a2.06,2.06,0,0,1-1.37.53H1612a2,2,0,0,0-1.55,3.34l18,21.32a2,2,0,0,1,0,2.68l-36.72,40A2,2,0,0,0,1594,497l46.89-18.93a2,2,0,0,1,2.31.58l18,21.46a2,2,0,0,0,3.5-.74l10.7-36.78a2,2,0,0,1,1.08-1.26l66.25-31a2,2,0,0,0-.86-3.87h-57.29a2,2,0,0,1-2-2A1.87,1.87,0,0,1,1682.66,423.8Z" transform="translate(-406.21 -387.5)"/><path class="cls-1" d="M1637.05,411.4l11.2-4.52a2,2,0,0,1,2.31.58l3.81,4.53,2.41-8.29a2,2,0,0,1,1.09-1.27l15.89-7.45H1661.2a2,2,0,0,1-2-2,2.12,2.12,0,0,1,.1-.62l1.57-4.83-7.61,7a2.05,2.05,0,0,1-1.37.52h-9.92l3.72,4.42a2,2,0,0,1-.05,2.68Z" transform="translate(-406.21 -387.5)"/><path class="cls-1" d="M1599.2,419.07l29.6-13.86a2,2,0,0,0-.86-3.87h-23.62a2,2,0,0,1-2-2,2.17,2.17,0,0,1,.1-.62l2.41-7.32a2,2,0,0,0-3.29-2.13l-12.72,11.58a2,2,0,0,1-1.37.53h-19.59a2,2,0,0,0-1.55,3.34l7.31,8.65a2,2,0,0,1,0,2.69l-15.31,16.65a2,2,0,0,0,.15,2.87,2,2,0,0,0,2.1.38l19.36-7.79a2,2,0,0,1,2.31.57l7.62,9.06a2,2,0,0,0,3.5-.74l4.87-16.68A2.06,2.06,0,0,1,1599.2,419.07Z" transform="translate(-406.21 -387.5)"/></svg>