<svg id="Layer_1" data-name="Layer 1" xmlns="http://www.w3.org/2000/svg" viewBox="0 0 1820.14 922.67"><defs><style>.cls-1{fill:#fff;}</style></defs><title>Logo 2</title><path class="cls-1" d="M1583.17,425.24a30.74,30.74,0,0,0-5.55-7.85c-.3-.35-.61-.67-.92-1s-.61-.67-.93-1-.61-.67-.92-1-.61-.67-.93-1-.61-.67-.92-1-.61-.67-.93-1-.61-.67-.92-1-.61-.67-.93-1-.61-.67-.92-1-.61-.67-.93-1-.61-.67-.92-1-.61-.67-.93-1-.61-.67-.93-1-.6-.67-.92-1-.61-.67-.93-1-.61-.67-.92-1-.61-.66-.92-1l-.93-1q-.45-.51-.93-1c-.3-.34-.61-.67-.92-1s-.61-.67-.93-1-.61-.67-.92-1-.61-.67-.93-1-.61-.67-.92-1-.61-.67-.93-1-.61-.67-.92-1-.61-.67-.93-1-.61-.68-.92-1-.61-.67-.93-1-.61-.67-.92-1-.61-.67-.93-1-.61-.67-.92-1-.61-.67-.93-1-.61-.67-.92-1-.61-.67-.93-1-.61-.68-.92-1-.61-.67-.93-1-.61-.67-.92-1-.61-.67-.93-1-.61-.67-.92-1c-6-6.76-14.73-10.65-24.72-10.65h-33.56c-9.16,0-18.22,2.92-26.94,8.69l-.31.21a54.79,54.79,0,0,0-18.15,20.32l-17,33.3a8.41,8.41,0,0,1-2.15,2.52,31.85,31.85,0,0,0-2.37-6.68,30.46,30.46,0,0,0-5.54-7.85c-.3-.35-.61-.67-.93-1s-.6-.67-.92-1-.61-.67-.93-1-.61-.67-.92-1-.61-.67-.93-1-.61-.67-.92-1-.61-.67-.93-1-.61-.67-.92-1-.61-.67-.93-1-.61-.67-.92-1-.61-.67-.93-1-.61-.67-.92-1-.61-.67-.93-1-.61-.67-.92-1-.61-.67-.93-1-.61-.67-.92-1-.61-.66-.93-1-.61-.67-.92-1-.61-.67-.93-1-.61-.67-.92-1-.61-.67-.93-1-.61-.67-.92-1-.61-.67-.93-1-.61-.67-.92-1-.61-.67-.93-1-.61-.67-.92-1-.61-.67-.93-1-.61-.68-.93-1-.6-.67-.92-1-.61-.67-.93-1-.6-.67-.92-1-.61-.67-.92-1-.62-.67-.93-1-.61-.67-.93-1-.61-.67-.92-1-.61-.68-.93-1-.61-.67-.92-1-.61-.67-.93-1-.61-.67-.92-1-.61-.67-.93-1c-6-6.76-14.73-10.65-24.71-10.65h-33.56c-9.16,0-18.22,2.92-26.94,8.69l-.3.2a32.8,32.8,0,0,0-23.09-8.89h-33.56c-9.15,0-18.22,2.92-26.94,8.69l-.31.21a54.88,54.88,0,0,0-18.15,20.32l-17,33.3a8.41,8.41,0,0,1-2.15,2.52,32.47,32.47,0,0,0-2.36-6.68,30.74,30.74,0,0,0-5.55-7.85c-.3-.35-.61-.67-.93-1s-.6-.67-.92-1-.61-.67-.93-1-.6-.67-.92-1-.61-.67-.92-1l-.93-1c-.3-.34-.61-.67-.93-1s-.61-.67-.92-1-.61-.67-.93-1-.61-.67-.92-1-.61-.67-.93-1-.61-.67-.92-1-.61-.67-.93-1-.61-.67-.92-1-.61-.67-.93-1-.61-.67-.92-1-.61-.66-.93-1-.61-.67-.92-1-.61-.67-.93-1-.61-.67-.92-1-.61-.67-.93-1-.61-.67-.92-1-.61-.67-.93-1-.61-.67-.92-1-.61-.67-.93-1-.61-.67-.92-1-.61-.67-.93-1-.61-.68-.92-1-.61-.67-.93-1-.61-.67-.92-1-.61-.67-.93-1-.61-.67-.92-1-.61-.67-.93-1-.61-.67-.92-1-.61-.67-.93-1-.61-.68-.92-1-.61-.67-.93-1-.61-.67-.92-1-.61-.67-.93-1-.61-.67-.93-1c-6-6.76-14.73-10.65-24.71-10.65h-33.56c-9.16,0-18.22,2.92-26.94,8.69l-.3.2a32.8,32.8,0,0,0-23.09-8.89H979c-9.16,0-18.23,2.92-26.95,8.69l-.31.21a54.31,54.31,0,0,0-18,20.06l-19.06,37.28a32.46,32.46,0,0,0-2.61-7.88,30.74,30.74,0,0,0-5.55-7.85c-.3-.35-.61-.67-.92-1s-.61-.67-.93-1-.61-.67-.92-1-.61-.67-.93-1-.61-.67-.92-1-.61-.67-.93-1-.61-.67-.92-1-.61-.67-.93-1-.61-.67-.92-1-.61-.67-.93-1-.61-.67-.92-1-.61-.67-.93-1-.61-.67-.93-1-.6-.67-.92-1-.61-.67-.93-1-.61-.67-.92-1-.61-.66-.93-1-.61-.67-.92-1-.61-.67-.93-1-.61-.67-.92-1-.61-.67-.93-1-.61-.67-.92-1-.61-.67-.93-1-.61-.67-.92-1-.61-.67-.93-1-.61-.67-.92-1-.61-.67-.93-1-.61-.68-.92-1-.61-.67-.93-1-.61-.67-.92-1-.61-.67-.93-1-.61-.67-.92-1-.61-.67-.93-1-.61-.67-.92-1-.61-.67-.93-1-.61-.68-.92-1-.61-.67-.93-1-.61-.67-.92-1-.61-.67-.93-1-.61-.67-.92-1c-6-6.76-14.74-10.65-24.72-10.65H811.25c-9.16,0-18.22,2.92-26.94,8.69l-.31.21a60.91,60.91,0,0,0-6.63,5.24c-7.66-9.09-19.3-14.14-33.23-14.14H576.37c-13.68,0-27.58,4.6-41.29,13.68-13,8.58-22.85,19.37-29.34,32.06l-34.32,67.11c-5.85,11.42-5.38,20.89-3.36,27.59q-2,1.14-4.06,2.47l-.31.21a54.3,54.3,0,0,0-18,20.06c-7,13.66-5,24.51-2,31.21.25.57.52,1.14.82,1.69a30.91,30.91,0,0,0,5.45,7.24c.3.33.6.67.92,1s.6.68.92,1,.61.68.93,1,.6.67.93,1,.6.68.92,1,.6.68.93,1,.6.68.92,1,.6.68.93,1,.6.68.92,1,.6.68.93,1,.6.68.92,1,.6.67.93,1,.6.68.92,1,.6.68.93,1,.6.68.92,1,.61.68.93,1,.6.68.92,1,.61.68.93,1,.6.68.92,1,.61.67.93,1,.6.68.92,1,.61.68.93,1,.6.67.92,1,.61.68.93,1,.6.68.92,1,.61.68.93,1,.6.68.92,1,.61.68.93,1,.6.68.92,1,.61.68.93,1,.6.67.92,1,.61.68.93,1,.6.68.92,1,.61.68.93,1,.6.68.92,1,.61.68.93,1,.6.68.93,1,.6.68.92,1,.6.68.93,1,.6.68.92,1c6,6.53,14.7,10.19,24.8,10.19H696.27c13.15,0,26.56-4.3,39.88-12.76.08.08.17.15.25.24.3.33.61.67.93,1s.6.68.92,1c6,6.75,14.85,10.53,25.13,10.53h33.55c8.86,0,17.69-2.77,26.56-8.43a54.23,54.23,0,0,0,18.72-20.54,10,10,0,0,1,3.33-3.42,15.57,15.57,0,0,1,2.14-1.16h70.49l.46.44c.31.34.6.68.92,1s.61.68.93,1,.6.67.92,1,.61.68.93,1,.6.68.92,1,.61.67.93,1,.6.68.93,1,.6.68.92,1,.6.68.92,1,.61.68.93,1,.6.68.92,1,.61.68.93,1,.6.68.93,1,.6.67.92,1,.6.68.93,1,.6.68.92,1,.6.68.93,1,.6.68.92,1,.6.68.93,1,.6.68.92,1,.6.68.93,1,.6.68.92,1,.61.68.93,1c6,6.53,14.7,10.19,24.79,10.19,8.86,0,17.69-2.77,26.56-8.43a60.36,60.36,0,0,0,7.06-5.45c6,7,16.28,13.88,33.49,13.88h167.77c13.45,0,27.15-4.48,40.75-13.31,2.13-1.38,4.16-2.84,6.12-4.34l.18.18c.29.34.61.67.92,1l.92,1c.3.34.62.67.93,1s.61.67.93,1c6,6.84,16.25,13.48,33.14,13.48h167.77c13.45,0,27.15-4.48,40.75-13.31,13.22-8.59,23.27-19.5,29.88-32.43l60.07-117.44C1589.39,442.49,1585.92,430.9,1583.17,425.24ZM686.89,547.32Q672,557,658.33,557H473.78q-7.06,0-9.64-4.72c-1.45-3.31-1-7.34,1.45-12.06a32.07,32.07,0,0,1,10.75-11.79q7.52-5,14.61-5h142.6a12.63,12.63,0,0,0,7-2.36,15.12,15.12,0,0,0,5.71-6q1.74-3.41.33-5.77c-.68-1.74-2.16-2.62-4.43-2.62H499.53q-7.08,0-9.65-4.72c-1.45-3.31-1-7.34,1.45-12.06l34.32-67.11q7.11-13.89,21.77-23.59,15.06-10,29-10H744.14q13.9,0,18.5,10,4.86,10-2.1,23.59Q753.3,437,738.37,446.66t-28.55,9.7H584a12.73,12.73,0,0,0-7.37,2.62,15.19,15.19,0,0,0-5.31,5.77c-1.25,2.45-1.49,4.45-.72,6s2.37,2.36,4.82,2.36H718q6.81,0,9.25,5c1.61,3.32,1.27,7.25-1.06,11.79l-17.16,33.56Q701.81,537.63,686.89,547.32Zm265.24-7.08A31.88,31.88,0,0,1,941,552.3q-7.4,4.73-14.21,4.72-7.08,0-9.64-4.72c-1.46-3.31-1-7.34,1.44-12.06q3.49-6.81,1.06-11.79t-9.25-5H809.71q-7.08,0-14.6,5a32,32,0,0,0-10.75,11.79,32,32,0,0,1-11.15,12.06Q765.82,557,759,557H725.44q-7.08,0-9.64-4.72c-1.45-3.31-1-7.34,1.45-12.06L785.89,406a32.05,32.05,0,0,1,10.76-11.8q7.51-5,14.6-5h33.56q6.81,0,9.25,5t-1.19,12.06l-25.61,50.07a31.87,31.87,0,0,1-11.15,12.06q-7.4,4.71-14.21,4.72h-8.38a12.69,12.69,0,0,0-7.38,2.62,15.39,15.39,0,0,0-5.31,5.76q-1.87,3.68-.72,6c.77,1.58,2.37,2.36,4.82,2.36H894q6.81,0,14.21-4.72a31.82,31.82,0,0,0,11.14-12.05L953.67,406a31.94,31.94,0,0,1,10.75-11.8c5-3.32,9.89-5,14.6-5h33.56q6.81,0,9.25,5t-1.19,12.06Zm238.08,7.08q-14.94,9.7-28.56,9.7H993.88q-14.16,0-18.9-9.7-4.59-10,2.51-23.85a32,32,0,0,1,10.75-11.8q7.51-5,14.61-5H1179a12.68,12.68,0,0,0,7-2.36,15.1,15.1,0,0,0,5.7-6c1.17-2.27,1.27-4.19.33-5.76q-1-2.62-4.42-2.63H1011.43q-7.08,0-9.65-4.72-2.17-5,1.45-12.05l34.19-66.85a32.51,32.51,0,0,1,10.89-12.06q7.51-5,14.6-5h33.56q6.81,0,9.25,5c1.61,3.32,1.27,7.25-1.06,11.8l-17.16,33.55q-3.62,7.08-1.45,12.06,2.57,4.71,9.65,4.72h67.1q6.83,0,14.21-4.72a31.87,31.87,0,0,0,11.15-12.06l17-33.29a32.59,32.59,0,0,1,10.89-12.06q7.51-5,14.6-5h33.56q6.81,0,9.25,5c1.61,3.32,1.27,7.25-1,11.8l-60.07,117.44Q1205.13,537.63,1190.21,547.32ZM1524.09,406,1464,523.47q-7.24,14.16-22.17,23.85t-28.55,9.7H1245.54q-14.16,0-18.9-9.7-4.61-10,2.51-23.85a31.94,31.94,0,0,1,10.75-11.8c5-3.32,9.89-5,14.6-5h176.17a12.68,12.68,0,0,0,7-2.36,15.1,15.1,0,0,0,5.7-6q1.74-3.41.33-5.76-1-2.62-4.42-2.63H1263.09q-7.08,0-9.65-4.72-2.18-5,1.45-12.05l34.19-66.85A32.56,32.56,0,0,1,1300,394.23q7.53-5,14.61-5h33.55q6.83,0,9.25,5t-1,11.8l-17.16,33.55q-3.62,7.08-1.45,12.06,2.57,4.71,9.64,4.72h67.11q6.82,0,14.21-4.72a31.87,31.87,0,0,0,11.15-12.06l17-33.29a32.51,32.51,0,0,1,10.89-12.06q7.52-5,14.6-5h33.56q6.81,0,9.25,5C1526.76,397.55,1526.42,401.48,1524.09,406Z" transform="translate(-30.25 -95.69)"/><path class="cls-1" d="M976,104.49q-90,17.81-179.72,35.9a801.52,801.52,0,0,0-354,156.16A401.26,401.26,0,0,0,366,384.2c-64.22,94.55-36.59,195.42,40.22,267.37a595.13,595.13,0,0,0,257.7,134.18,1324.9,1324.9,0,0,0,662.55,6.54,789.33,789.33,0,0,0,347.14-162.63A282.46,282.46,0,0,0,1762,507.78a180.12,180.12,0,0,0-8.3-147.7,121.83,121.83,0,0,1-6.44-35.11A124.69,124.69,0,0,1,1775,342.81a256,256,0,0,1,27.44,330.54c-82.4,122.41-205.6,189.68-338.54,240.89a1660.48,1660.48,0,0,1-750.49,95.21,1320.1,1320.1,0,0,1-372.37-85.74A558.54,558.54,0,0,1,74.69,726.44,232.76,232.76,0,0,1,39.43,525a352.88,352.88,0,0,1,92.13-152.24A807.21,807.21,0,0,1,444.5,187.12,1510.86,1510.86,0,0,1,938.28,95.69a219.55,219.55,0,0,1,37.82,5.75Z" transform="translate(-30.25 -95.69)"/><path class="cls-1" d="M1715.46,225.56,1729.71,182a3.74,3.74,0,0,0-6.06-3.91l-56.38,51.41a3.73,3.73,0,0,1-2.52,1h-79.18a3.74,3.74,0,0,0-3.74,3.74,3.81,3.81,0,0,0,.88,2.4l33.12,39.21a3.73,3.73,0,0,1-.1,4.93l-67.52,73.51a3.74,3.74,0,0,0,4.14,6l86.23-34.8a3.72,3.72,0,0,1,4.25,1.06L1676,365.92a3.73,3.73,0,0,0,6.44-1.36l19.67-67.62a3.78,3.78,0,0,1,2-2.33l121.82-57.06a3.73,3.73,0,0,0-1.59-7.11H1719a3.73,3.73,0,0,1-3.72-3.75A3.61,3.61,0,0,1,1715.46,225.56Z" transform="translate(-30.25 -95.69)"/><path class="cls-1" d="M1631.61,202.76l20.58-8.31a3.74,3.74,0,0,1,4.25,1.06l7,8.33,4.43-15.24a3.76,3.76,0,0,1,2-2.33l29.22-13.7H1676a3.74,3.74,0,0,1-3.54-4.89l2.89-8.86-14,12.78a3.74,3.74,0,0,1-2.51,1h-18.25l6.86,8.11a3.73,3.73,0,0,1-.1,4.94Z" transform="translate(-30.25 -95.69)"/><path class="cls-1" d="M1562,216.86l54.42-25.5a3.73,3.73,0,0,0-1.58-7.11h-43.43a3.73,3.73,0,0,1-3.73-3.73,3.48,3.48,0,0,1,.19-1.16l4.43-13.46a3.74,3.74,0,0,0-6.06-3.92l-23.38,21.29a3.7,3.7,0,0,1-2.51,1h-36a3.75,3.75,0,0,0-3.74,3.74,3.81,3.81,0,0,0,.88,2.4l13.45,15.92a3.73,3.73,0,0,1-.1,4.93l-28.15,30.63a3.74,3.74,0,0,0,4.15,6l35.58-14.33a3.74,3.74,0,0,1,4.25,1l14,16.66a3.73,3.73,0,0,0,5.26.44,3.79,3.79,0,0,0,1.17-1.8l9-30.67A3.76,3.76,0,0,1,1562,216.86Z" transform="translate(-30.25 -95.69)"/></svg>